<svg xmlns="http://www.w3.org/2000/svg" version="1.1" xmlns:xlink="http://www.w3.org/1999/xlink" xmlns:svgjs="http://svgjs.dev/svgjs" width="128" height="128" viewBox="0 0 128 128"><g transform="matrix(0.44782608695652176,0,0,0.44782608695652176,35.339130434782625,12.5)"><svg viewBox="0 0 125 225" data-background-color="#ffffff" preserveAspectRatio="xMidYMid meet" height="230" width="128" xmlns="http://www.w3.org/2000/svg" xmlns:xlink="http://www.w3.org/1999/xlink"><g id="tight-bounds" transform="matrix(1,0,0,1,0,0)"><svg viewBox="0 0 125 225" height="225" width="125"><g><svg></svg></g><g><svg viewBox="0 0 125 225" height="225" width="125"><g><path d="M15.348 89.341l1.116-2.048c8.879-16.308 26.161-27.377 46.036-27.375 19.881 0 37.168 11.074 46.046 27.388l1.115 2.05 3.198-12.259 12.139 3.114-1.038-1.875c-11.966-21.615-35.002-36.256-61.46-36.256-26.459 0-49.492 14.64-61.462 36.256l-1.038 1.873 12.152-3.112zM62.5 43.928c24.975 0 46.777 13.414 58.712 33.405l-9.676-2.481-2.51 9.628c-9.474-15.81-26.752-26.409-46.526-26.409-19.766 0-37.041 10.593-46.515 26.394l-2.508-9.614-9.689 2.48c11.934-19.992 33.738-33.404 58.712-33.403zM109.652 135.657l-1.116 2.048c-8.879 16.31-26.161 27.377-46.036 27.377-19.881 0-37.168-11.072-46.046-27.388l-1.115-2.048-3.198 12.257-12.141-3.114 1.038 1.875c11.968 21.613 35.002 36.256 61.462 36.256 26.459 0 49.494-14.642 61.462-36.256l1.038-1.873-12.152 3.112zM62.5 181.072c-24.975 0-46.777-13.414-58.712-33.405l9.674 2.482 2.512-9.627c9.474 15.806 26.752 26.407 46.526 26.407 19.768 0 37.041-10.593 46.517-26.396l2.506 9.615 9.689-2.481c-11.934 19.99-33.736 33.406-58.712 33.405z" fill="#003a78" fill-rule="nonzero" stroke="none" stroke-width="1" stroke-linecap="butt" stroke-linejoin="miter" stroke-miterlimit="10" stroke-dasharray="" stroke-dashoffset="0" font-family="none" font-weight="none" font-size="none" text-anchor="none" style="mix-blend-mode: normal" data-fill-palette-color="tertiary"></path></g><g transform="matrix(1,0,0,1,39.325,84.73030434782609)"><svg viewBox="0 0 46.35 55.53939130434783" height="55.53939130434783" width="46.35"><g><svg viewBox="0 0 46.35 55.53939130434783" height="55.53939130434783" width="46.35"><g><svg viewBox="0 0 46.35 55.53939130434783" height="55.53939130434783" width="46.35"><g id="textblocktransform"><svg viewBox="0 0 46.35 55.53939130434783" height="55.53939130434783" width="46.35" id="textblock"><g><svg viewBox="0 0 46.35 55.53939130434783" height="55.53939130434783" width="46.35"><g transform="matrix(1,0,0,1,0,0)"><svg width="46.35" viewBox="0.45 -33.75 28.749999999999996 34.449999999999996" height="55.53939130434783" data-palette-color="#ff0f00"><path d="M27-3.95Q27.6-3.85 28.4-2.85 29.2-1.85 29.2-1L29.2-1Q29.2-0.45 28.35-0.15L28.35-0.15Q28.05-0.05 27.38 0.23 26.7 0.5 26.15 0.6 25.6 0.7 24.9 0.7L24.9 0.7Q23.85 0.7 23.3 0.45L23.3 0.45Q21.9-0.15 19.65-2.35 17.4-4.55 15.3-7.38 13.2-10.2 12.2-12.65L12.2-12.65 11.9-12.65Q10.5-12.65 9.85-12.7L9.85-12.7Q8.35-7.15 7.35-3L7.35-3Q6.95-1.25 6.13-0.3 5.3 0.65 3.45 0.65L3.45 0.65Q1.9 0.65 1.18 0.13 0.45-0.4 0.45-1.65L0.45-1.65Q0.45-2.2 0.6-2.7L0.6-2.7 6.65-26.05Q4.05-25.3 2.7-24L2.7-24Q2.15-24.6 1.83-25.58 1.5-26.55 1.5-27.5L1.5-27.5Q1.5-28.2 1.93-28.63 2.35-29.05 3.1-29.4L3.1-29.4Q3.35-29.55 4.93-30.3 6.5-31.05 7.95-31.45L7.95-31.45Q8.4-32.45 9.33-33.1 10.25-33.75 11.7-33.75L11.7-33.75Q12.55-33.75 13.1-33.43 13.65-33.1 13.85-32.6L13.85-32.6Q15.7-33.2 18.3-33.2L18.3-33.2Q21.5-33.2 23.88-31.93 26.25-30.65 27.5-28.65 28.75-26.65 28.75-24.6L28.75-24.6Q28.75-20.05 25.83-17.32 22.9-14.6 18.3-13.45L18.3-13.45Q19.35-11.65 21.1-9.4 22.85-7.15 24.43-5.58 26-4 26.5-4L26.5-4 27-3.95ZM13.3-27.4Q11.85-21.6 10.9-17.35L10.9-17.35Q11.5-17.3 12.6-17.3L12.6-17.3Q15-17.3 17.4-18.03 19.8-18.75 21.43-20.2 23.05-21.65 23.05-23.8L23.05-23.8Q23.05-25.75 21.45-26.93 19.85-28.1 17.15-28.1L17.15-28.1Q15.65-28.1 13.3-27.4L13.3-27.4Z" opacity="1" transform="matrix(1,0,0,1,0,0)" fill="#ff0f00" class="undefined-text-0" data-fill-palette-color="primary" id="text-0"></path></svg></g></svg></g></svg></g></svg></g></svg></g></svg></g></svg></g><defs></defs></svg><rect width="125" height="225" fill="none" stroke="none" visibility="hidden"></rect></g></svg></g></svg>