<svg xmlns="http://www.w3.org/2000/svg" version="1.1" xmlns:xlink="http://www.w3.org/1999/xlink" xmlns:svgjs="http://svgjs.dev/svgjs" width="128" height="128" viewBox="0 0 128 128"><g transform="matrix(0.44782608695652176,0,0,0.44782608695652176,35.33914745348652,12.5)"><svg viewBox="0 0 125 225" data-background-color="#ffffff" preserveAspectRatio="xMidYMid meet" height="230" width="128" xmlns="http://www.w3.org/2000/svg" xmlns:xlink="http://www.w3.org/1999/xlink"><g id="tight-bounds" transform="matrix(1,0,0,1,0.000009038293200092085,0)"><svg viewBox="0 0 125 225" height="225" width="125"><g><svg></svg></g><g><svg viewBox="0 0 125 225" height="225" width="125"><g><path d="M64.538 160.686c-0.549-0.686-1.097-0.274-1.097-0.686-3.291 0.823-9.462-1.371-12.068-1.097 0.549-0.823-0.823-0.686-0.823-1.234-0.549 0.823-1.097 0-1.92 0.274-0.823-2.057-4.114-0.549-4.525-3.154-1.92 0-2.606-1.097-4.526-2.194 0.137-0.137 0.274-0.137 0.412-0.274-0.96-0.137-0.96-0.686-1.783-0.686l0.274-0.548c-1.508-0.274-2.057-2.606-4.251-3.429-0.686-0.137-2.194-2.468-3.017-3.017-0.411-0.274-1.097-0.274-0.137-0.411-0.137-0.137-0.137-0.411 0-0.549-0.96-0.274-1.097-1.097-2.331-1.508-0.137-0.411 0.274-0.686 0-0.96-0.274-0.137-0.686 0.137-0.96 0-0.137 2.468 2.606 2.743 3.428 4.8-0.274-0.274-0.686-1.097-0.96-0.549-0.137 0.411 1.097 1.92 1.097 1.097-0.411 0.274-0.549-0.411-0.274-0.548 0.411 0.686 1.234 0.549 1.234 1.097-0.411 0.411-0.96-0.411-0.822 0.274 1.234 0.686 1.097 1.371 1.782 2.331-0.549-0.686-0.686 0.549-1.234 0-0.137-2.057-2.468-1.646-2.468-3.702-0.274-0.686-0.549-0.137-0.96-0.412 0.549-0.549-1.646-2.468-1.646-1.783-0.686-0.823-0.274-1.097-0.411-1.645-0.549-0.137-0.137 0.549-0.549 0.137 0.549-0.96-0.686-2.194-1.508-3.154l0.548-0.274c-0.96-0.549-1.097-1.646-1.783-2.88-0.823 1.234 1.646 3.977 1.235 4.525 0 0.137 0.96 1.234 1.234 1.783 1.097 1.92 1.92 4.251 3.428 5.348-0.274-0.137-0.137-0.96 0.275-0.548 0 0.411-0.274 0.823-0.275 1.234 0.823 0.823 1.508 1.508 2.332 2.331-1.783-1.097-3.566-2.194-4.8-3.84 0.686-0.137 1.371 1.097 1.92 0.96-1.371-1.097-0.96-1.508-1.509-2.88-0.549-0.411 0.137 0.549-0.411 0.686-1.783-1.646-3.154-2.606-3.977-4.114 0.137-0.137 0.274-0.274 0.274-0.548-0.137-0.137-0.137-0.137-0.274-0.275 0.823 0.823 1.097 1.508 2.057 1.646-0.411-0.411 0-0.549-0.549-0.96-0.274-0.549-0.686 0.274-0.96-0.137 0.274-0.411 0-0.96 0-1.372-0.274 0-0.549 0-0.685-0.411-0.274-0.137-0.411 0-0.549 0.274-0.137-0.137-0.137-0.411-0.274-0.548v-0.137c-0.137-0.137-0.274-0.411-0.411-0.549-1.097-2.88-1.783-6.72-3.292-9.188 0.411-1.646-0.274-4.937-0.685-5.76 0.411-0.686 0.137-3.84-0.137-4.388-0.686 0.274 0.137 1.783-0.549 2.194-0.686-3.017 0.411-6.445 0.137-9.188 0.274 0 0.549 0 0.549-0.137-0.411-0.411 0.274-1.234 0.137-2.194 0.549-1.234-1.234 1.783-1.234 3.017-0.137 0.274-0.686 0-0.549 0.686 0 0.96 0.274 2.88-0.274 4.251-0.274 0-0.274-0.274-0.549-0.137-0.137 0.686-0.274 1.508-0.411 2.194-0.137-0.274-0.274-0.686-0.274-0.823-0.686-3.428 0-7.405-0.275-10.285 0.549 0 0.549-0.823 0.96-1.097-0.137 1.097-0.411 2.468 0.275 2.743 0.549-5.348 1.646-11.245 4.114-17.005 1.783-4.251 4.388-8.502 7.542-11.931 0.274 0.411-0.137 1.371 0 1.783 2.743-2.88 4.525-6.308 7.542-8.228 0.137 0.686-1.234 1.234-1.234 1.782 1.234-1.234 1.646-0.823 3.017-1.234 0.411-0.549-0.549 0-0.686-0.548 0.823-0.549 1.371-1.234 1.92-1.646 0 0.137-0.137 0.137-0.137 0.274 1.508-0.411 1.646-1.234 2.743-1.508-0.137-0.137-0.411-0.274-0.823-0.137 0.274-0.137 0.686-0.411 1.097-0.549-0.137 0-0.137 0.137-0.274 0.137 0.823-0.411 0.137 0.137 0.137 0.412 0.137 0 0.274-0.137 0.274-0.137-0.823 0.549-1.371 0.823-1.645 1.782 0.411-0.274 0.549 0 1.097-0.411 0.549-0.274-0.137-0.686 0.274-0.96 0.411 0.274 0.96 0.137 1.371 0.137 0-0.274 0.137-0.549 0.412-0.685 0.137-0.274 0-0.411-0.137-0.412 0.137-0.137 0.274-0.137 0.548-0.274 0 0 0.137 0 0.137 0.137 2.331-1.097 4.937-2.057 7.406-2.88 1.508-0.137 3.428-0.137 4.251-1.097-0.274 0-0.549 0.137-0.686 0 0.137 0 0.411-0.137 0.549-0.137 0.274 0.274 0.686 0 0.274 0.548 0.137 0 0.137 0 0.274-0.137 0 0.137 0 0.137 0.137 0.275 0.137 0 0.274-0.137 0.412-0.412 0.137 0 0.274 0 0.411-0.137l-0.137 0.137c1.097-0.274 2.057-0.137 3.566-0.411 0-0.137 0-0.274 0-0.412 0.274 0 0.411-0.137 0.685-0.137v0.137c0.549-0.274 1.097 0.274 1.097 0 0.137 0 0.137 0 0.275 0 0 0.274-0.137 0.411-0.138 0.549 0.686 0 1.097 0 1.372-0.411-0.137-0.137-0.274-0.137-0.412-0.138 0.274 0 0.549-0.137 0.823-0.274 0.411 0.137 0.549 0.274 0.549 0.823 0.686-1.234 2.88 0.274 3.84 0 0.411 0 0.274-0.549 0.548-0.823 0.137 0 0.274 0 0.411 0 0.686 0.549 1.646 1.097 2.88 1.234-1.097-0.274 0.137-0.411 0.275-0.548-0.274 0-0.274-0.137-0.275-0.274 0.411 0 0.823 0.137 1.234 0.137 0 0.274 0.137 0.411 0.412 0.411 0.274 0 0.274-0.137 0.274-0.411 0.411 0 0.686 0 1.097 0.137-0.137 0.549 0.686 0.686 0.96 1.097-1.097-0.274-2.331-0.686-2.743 0 4.388 0.96 9.188 2.331 13.851 4.662 0 0 0 0 0 0.138h0.137c0.823 0.411 1.646 0.823 2.469 1.234 0.549 0.274 0.96 0.549 1.508 0.96 0 0.137 0 0.274 0.274 0.274h0.138c0.549 0.411 1.097 0.686 1.645 1.097 0.549 0.823 1.097 1.92 2.057 1.646 2.057 3.154 4.251 4.388 6.034 7.679 0.137-0.549 0.549 1.234 1.234 1.372-1.097-0.137 0.686 0.686-0.411 0.548 0.96 0.96 1.234 1.371 1.371 2.469-0.274-0.549-0.411-0.686-0.548-0.138-0.137 0.823 0.96-0.137 1.371 0.686-0.823 0-0.549 0.549-0.411 1.234 0.411-0.411 0.274-0.823 0.685-0.685 0.549 0.549-0.274 0.686-0.137 1.097 0.411-0.549 0.549-0.274 1.097 0-0.686 0.137 0.411 1.097-0.411 0.685 0.549 0.686 0.686 1.097 0.411 1.783-0.549-0.823-0.137-1.371-0.96-1.234 1.646 1.371 0.823 4.525 2.743 4.8-1.234 0.274 0 0.823-0.686 0.96 0.823 0.274 0.411 1.371 1.372 1.645-0.137 0.686-0.411 1.097-0.549 1.783 0.411 0.549 0.549 1.646 1.234 1.783-0.411 0.411-0.137 1.508-0.548 1.92 0.549-0.274 0.823-0.274 1.234 0.274-0.686 0.549-0.137 1.097-0.548 1.234 1.234 3.154-0.274 9.599 0.411 12.068-0.823-0.411-0.549 0.96-1.097 0.96 0.96 0.411 0.137 1.097 0.548 1.783-1.92 1.097 0 4.114-2.605 4.799 0.274 1.92-0.823 2.743-1.646 4.8-0.137-0.137-0.137-0.274-0.274-0.411-0.137 0.96-0.686 1.097-0.411 1.92l-0.549-0.275c0 1.508-2.331 2.331-2.88 4.663-0.137 0.686-2.194 2.468-2.743 3.428-0.274 0.411-0.137 1.097-0.411 0.137-0.137 0.137-0.411 0.137-0.548 0.138-0.137 0.96-0.96 1.234-1.235 2.468-0.274 0.137-0.686-0.274-0.96 0.137 0 0.274 0.274 0.686 0.138 0.96 2.468-0.137 2.468-3.017 4.388-3.977-0.137 0.411-0.96 0.823-0.412 1.097 0.411 0 1.646-1.371 0.96-1.234 0.411 0.274-0.411 0.549-0.548 0.411 0.686-0.549 0.411-1.234 0.96-1.371 0.411 0.274-0.411 0.96 0.411 0.823 0.549-1.234 1.234-1.371 2.057-2.057-0.549 0.549 0.686 0.686 0.137 1.234-2.057 0.411-1.371 2.743-3.428 3.017-0.549 0.411-0.137 0.549-0.274 0.96-0.686-0.411-2.194 1.92-1.646 1.783-0.686 0.686-1.097 0.411-1.646 0.548-0.137 0.549 0.549 0.137 0.275 0.549-0.96-0.411-2.194 0.96-3.017 1.92l-0.412-0.412c-0.411 1.097-1.508 1.234-2.742 2.057 1.371 0.686 3.703-2.194 4.388-1.782 0.137 0 1.234-1.097 1.646-1.509 1.783-1.371 3.977-2.468 4.799-3.977-0.137 0.274-0.96 0.274-0.548-0.137 0.411-0.137 0.823 0.137 1.234 0.137 2.194-3.017 4.937-5.485 6.994-9.051 0.137-0.137 0.274-0.411 0.411-0.685-0.274 0.823-0.686 1.508-0.96 2.331-2.194 1.508-3.017 5.897-5.622 6.582 0.137 1.508-1.234 1.92-1.92 3.703-0.411 0.549-0.686-0.411-1.097 0.274 0.411 1.92-3.428 1.783-3.291 3.566-0.274 0.137-0.686 0.274-0.96 0.548h-0.138c-0.137 0.137-0.137 0.137-0.274 0.275-0.686 0.411-1.234 0.823-1.783 1.234-1.92 1.097-4.525 1.92-6.582 3.017v-0.137c-0.549 0.274-1.234 0.137-1.097 0.685-0.411 0.274-0.823 0.549-1.234 0.823-0.137 0-0.137 0-0.275 0 0 0-0.137-0.137-0.274-0.137-0.274 0-0.274 0-0.411 0.137-1.783 0.137-4.114 0.96-4.8 1.509-0.686-0.411-3.84 0.274-4.388 0.548 0.274 0.411 1.097 0 1.782 0-0.411 0.137-0.823 0.274-0.959 0.549-0.137 0-0.137 0-0.275 0-0.137-0.411-0.549 0-0.685-0.137h0.137c-0.137-0.549-0.549-0.823-1.234-0.686 0 0.274 0 0.411-0.138 0.686 0.274 0 1.097-0.411 1.097 0-0.137 0-0.137 0.137 0 0.137-0.274 0.274-0.686 0.274-0.959 0.411-0.549 0-1.234 0-1.783 0-0.137-0.137-0.274-0.137-0.549-0.274-0.137 0.137-0.411 0.137-0.548 0.274-0.823 0-1.783 0.137-2.469 0.274 0-0.274 0-0.549-0.274-0.548-0.411 0.549-1.234-0.137-2.194 0.137-0.96-0.274 0.549 0.411 1.92 0.686-0.137 0.137-0.274 0.274-0.686 0.411M45.339 162.606c-1.92-1.783-5.897-2.606-6.582-3.977-1.097-0.137-2.743-2.194-4.114-2.468 0.686 0 0.137-0.411 0-0.686-0.274 0.274-0.549 0.411-0.823 0.411 0-1.097-1.097-1.783-2.057-2.468 0.686 0.411 1.234 0.686 2.057 0.823 0-0.274 0-0.549 0.274-0.549 0.96 0.96 2.057 1.92 3.291 2.88 1.646 1.508 10.148 5.348 11.657 6.034 0 0-0.274 0.549-0.137 0.548 0.686 0.411 1.234-0.411 1.371 0.549-2.194 0.274-3.017-1.234-4.937-1.097M108.558 130.791v0.137 0c-0.137 0 0-0.137 0-0.137M53.156 67.297c-0.137 0.137-0.274 0.137-0.274 0.137 0-0.137 0.137-0.137 0.274-0.137M50.55 67.983c0 0.137 0 0.137 0 0 0 0.137 0 0.137 0 0 0 0.137 0 0 0 0M41.499 70.863v0c0.137-0.137 0.137-0.137 0.275-0.137-0.137 0-0.274 0.137-0.275 0.137M63.441 66.337c-0.274 0-0.411 0-0.549-0.137 0.137 0 0.274 0 0.412 0h0.137c0 0 0 0 0 0.137M65.909 66.611c-0.137-0.137-0.549-0.274-0.96-0.274 0-0.137 0.137-0.274 0.138-0.274 0.137 0 0.274 0 0.411 0 0 0 0.137 0 0.137 0.137 0 0 0 0 0-0.137 0.137 0 0.137 0 0.274 0 0.137 0.274 0.274 0.411 0 0.548M70.435 67.023c-0.686 0.137-1.097-0.137-1.783-0.549 0.411 0 0.96 0.137 1.371 0.275 0.137 0 0.274 0.137 0.412 0.274M119.255 86.496c-0.274 0.137-0.411 0.137-0.686-0.411-2.194-4.663-6.171-11.382-11.931-17.005-5.623-5.76-13.165-10.422-20.021-12.891 0.411 0.137 0.96 0.411 0.685 0.686-6.034-2.331-11.794-3.703-17.279-4.251-14.811-2.331-30.307 0.823-42.237 8.502 0.137 0.274 0.137 0.411-0.274 0.686-4.388 2.743-10.559 7.542-15.497 13.85-4.937 6.308-8.777 14.262-10.422 21.393 0.137-0.411 0.274-1.097 0.549-0.822-3.566 14.125-2.606 26.193 2.331 36.615 0.274-0.274-0.686-1.646 0.137-1.509 0.549 1.508 1.234 3.154 2.057 4.663 0.96 2.194 2.057 5.074 3.566 5.759-3.84-7.542-6.445-16.182-6.72-23.861 0.549 1.097 0.411 3.428 1.234 4.388 0.274-5.211-0.96-12.205 0.823-17.142-0.411 2.606-0.686 6.171-0.411 9.737 0 2.606 1.234 9.874 2.057 10.559-0.137-0.137-0.137-0.823 0-0.822 0.411 0.823-0.549 1.234 0.137 1.371 0-0.274 0.137-0.274 0.274-0.274 1.371 3.017 3.154 7.68 4.526 10.01 1.646 3.017 3.84 5.76 6.308 8.229 0 0.137 0.137 0.137 0.137 0.274 0.274 0.686 1.234 1.508 1.508 2.057 0.137 0.274-0.137 0.686 0 0.96 2.057 3.84 5.074 7.68 8.777 10.696 2.331 2.743 6.034 5.623 10.559 8.091 4.388 2.331 9.462 4.251 14.125 5.348 3.291 0.823 7.268 0.96 9.737 1.509 3.291 0.686 9.051-0.274 11.931-0.823 17.279-2.606 34.421-14.399 43.06-31.404 8.914-17.142 8.639-38.123 0.96-54.168" fill="#ed1703" fill-rule="nonzero" stroke="none" stroke-width="1" stroke-linecap="butt" stroke-linejoin="miter" stroke-miterlimit="10" stroke-dasharray="" stroke-dashoffset="0" font-family="none" font-weight="none" font-size="none" text-anchor="none" style="mix-blend-mode: normal" data-fill-palette-color="tertiary"></path></g><g transform="matrix(1,0,0,1,43.1875,93.9174541036717)"><svg viewBox="0 0 38.625 37.16509179265659" height="37.16509179265659" width="38.625"><g><svg viewBox="0 0 38.625 37.16509179265659" height="37.16509179265659" width="38.625"><g><svg viewBox="0 0 38.625 37.16509179265659" height="37.16509179265659" width="38.625"><g id="textblocktransform"><svg viewBox="0 0 38.625 37.16509179265659" height="37.16509179265659" width="38.625" id="textblock"><g><svg viewBox="0 0 38.625 37.16509179265659" height="37.16509179265659" width="38.625"><g transform="matrix(1,0,0,1,0,0)"><svg width="38.625" viewBox="-10.7 -40.65 47.300000000000004 45.55" height="37.16509179265659" data-palette-color="#ed1703"><g class="undefined-text-0" data-fill-palette-color="primary" id="text-0"><path d="M21.5-31.35L21.75-31.15Q21.75-31.05 21.68-30.93 21.6-30.8 20.2-28.1L20.2-28.1Q18.65-25.2 12.05-12.95L12.05-12.95Q19.45-15.7 25.3-21.18 31.15-26.65 31.15-30.8L31.15-30.8Q31.15-33.05 28.95-34.5 26.75-35.95 22.3-35.95 17.85-35.95 12.73-34.08 7.6-32.2 3.7-29.6-0.2-27-2.83-24.25-5.45-21.5-5.45-19.75L-5.45-19.75Q-5.45-17.8-2.33-17.8 0.8-17.8 4.83-19.88 8.85-21.95 12.05-25.4L12.05-25.4Q12.6-26.05 12.75-26.05L12.75-26.05Q13.1-26.05 13.1-25.7L13.1-25.7Q13.1-25.6 12.75-25L12.75-25Q11.1-22.5 5.43-19.13-0.25-15.75-3.98-15.75-7.7-15.75-7.7-18.1L-7.7-18.1Q-7.7-20.2-4.73-23.53-1.75-26.85 2.7-30 7.15-33.15 13.05-35.4 18.95-37.65 23.93-37.65 28.9-37.65 31.25-36.08 33.6-34.5 33.6-32L33.6-32Q33.6-27.65 28.08-22.1 22.55-16.55 14.75-13.2L14.75-13.2Q19.8-13.15 23.15-8.83 26.5-4.5 26.55 1.2L26.55 1.2Q26.55 1.9 26.3 1.9L26.3 1.9Q25.9 1.9 25.75 1.03 25.6 0.15 25.4-0.7 25.2-1.55 24.18-3.7 23.15-5.85 21.78-7.5 20.4-9.15 17.8-10.5 15.2-11.85 11.95-11.85L11.95-11.85 11.4-11.85Q7.8-5.3 5.35-1L5.35-1Q5.05-0.35 4.25 0 3.45 0.35 3.03 0.35 2.6 0.35 2.6 0.1L2.6 0.1 8.75-11.1Q6.75-10.6 4.65-10.35L4.65-10.35Q3.75-10.35 3.75-10.65L3.75-10.65Q3.75-11.2 4.3-11.25L4.3-11.25Q6.6-11.4 9.3-12.1L9.3-12.1 19.35-30.4Q19.5-30.8 20.25-31.08 21-31.35 21.5-31.35L21.5-31.35Z" fill="#ed1703" data-fill-palette-color="primary"></path></g></svg></g></svg></g></svg></g></svg></g></svg></g></svg></g></svg></g><defs></defs></svg><rect width="125" height="225" fill="none" stroke="none" visibility="hidden"></rect></g></svg></g></svg>